<svg width="128" height="128" viewBox="0 0 128 128" fill="none" xmlns="http://www.w3.org/2000/svg">
<path d="M40.375 76.7344C40.375 72.4531 41.4062 68.5 43.4688 64.875C45.5625 61.2188 48.4062 58.3281 52 56.2031C55.625 54.0781 59.5781 53.0156 63.8594 53.0156C70.3906 53.0156 75.9688 55.3438 80.5938 60C85.25 64.625 87.5781 70.2031 87.5781 76.7344C87.5781 83.2344 85.25 88.7969 80.5938 93.4219C75.9688 98.0469 70.3906 100.359 63.8594 100.359C60.6719 100.359 57.625 99.7344 54.7188 98.4844C51.8125 97.2344 49.3125 95.5625 47.2188 93.4688C45.125 91.3438 43.4531 88.8281 42.2031 85.9219C40.9844 82.9844 40.375 79.9219 40.375 76.7344ZM46.7031 76.8281C46.7031 81.5469 48.375 85.5938 51.7188 88.9688C55.0625 92.3438 59.0781 94.0312 63.7656 94.0312C68.6094 94.0312 72.7344 92.3438 76.1406 88.9688C79.5469 85.5938 81.25 81.5469 81.25 76.8281C81.25 71.9844 79.5469 67.8594 76.1406 64.4531C72.7344 61.0469 68.6094 59.3438 63.7656 59.3438C59.0781 59.3438 55.0625 61.0469 51.7188 64.4531C48.375 67.8594 46.7031 71.9844 46.7031 76.8281Z" fill="white"/>
</svg>
